<svg version="1.1" xmlns="http://www.w3.org/2000/svg" viewBox="0 0 720 610.1953125" width="720" height="610.1953125">
  <!-- svg-source:excalidraw -->
  <!-- payload-type:application/vnd.excalidraw+json --><!-- payload-version:2 --><!-- payload-start -->eyJ2ZXJzaW9uIjoiMSIsImVuY29kaW5nIjoiYnN0cmluZyIsImNvbXByZXNzZWQiOnRydWUsImVuY29kZWQiOiJ4nO2YzW7bMFxmgO95XG7Du66OLf9cdTAwMTdcdTAwMTiG7lx1MDAwZi0w9NJcdTAwMDE7XGY7KDKdXGKRJUNW0mRFgT3EnnBPMtlJI+e3XHUwMDFl1nY5JFx0XGaYpEyK/ERZuetZlq3mJdjnllxyM4JcdTAwMTnNJL61X9fyKciKXG6uVai5r8REksZypFRZnff7XHUwMDA1lmNQJcNcdTAwMDScKa0mmFVqklHhXHUwMDEwUfSpgqJ6W1+vcVx1MDAwMW9KUWRKOsbJXHUwMDE5ZFRcdLnwXHUwMDA1XGZcbuCq0k//pu8t6665tqKTQFx1MDAxNOZDXHUwMDA2zYBGZVx1MDAwMvQ2ZdeCN6G6K1x1MDAwNa0+aCdcbjItzXWgYDS1yC6lmFx1MDAxNWJ2Nlx1MDAxMpUyLnLK2I2asyaESujIja5SUozhK83U6CFHLfm+UVJMhiNcdTAwMGVVtVx1MDAxNrYoMaFqXstcXFx1MDAxM/Nivu1ZzDYs6lx1MDAxMah1v/D9XjCdWO37lVx1MDAwN/XXeFx1MDAxZmAyXHUwMDFl6lx1MDAxMHhmbCBcdTAwMDVcdTAwMDK5sbldzihuPXdcdTAwMDR0OFJaXHUwMDE4tJ1Bk00zi/rJ5VXWVPG7yaHU9b+qLfmEsXZcIni2TMRDtU29/aXk3oRe239scWI8TMpcZi8q68UxipFcdTAwMWa7cZSaijDKx5vumSBjXHUwMDAzQ6/l68XRm1x1MDAxNmeU6yxcdTAwMWQ5dmhcdTAwMDO7aD92KE8hXGJcdTAwMGVjN0A5XHUwMDFhXGa2sUO7sPPCXHUwMDEzds+AXSF43YMpXHUwMDFmXHUwMDFlN3t+2J09SMLUJYfZy/MswcmJvf/JXHUwMDFlLsvquKlcdTAwMGKT7tR5aexcdTAwMTF0mDpcdTAwMWNmSb5joz1R93LUZTA9bug2t9kg2Fx1MDAwZl1K/GhcdTAwMTA+8nZcdTAwMDdcdTAwMDPIcVfoTm93T1x1MDAwZZ3OhFx1MDAwMnnc0G3ur+GBRtfhRJFcdTAwMDEgiDoyl5yQe2rkqDjyI+zmznqoyZFcdTAwMTRhhFx1MDAxZnufIylJT01uL3FcbmZqXHUwMDE3bOE+2LzAR0lcdTAwMTBcdTAwMDfI60ydoqpN9DFyh3zf8bxE/1BcdTAwMTJ5eoZrXHUwMDE0pk7iXHUwMDA2UVx1MDAxMod7WezQ/JTEvCqx1CXe5jHwXHUwMDAzJ0zT2HVTXHUwMDE0x35cdTAwMTBs0+k/XHUwMDA3nGuK7lx1MDAxNEa+h7wojf6CQlx1MDAxM5Xg6ob+gGZcdTAwMTWuST/hgrL52sRcdTAwMWE8dfIuRVx1MDAwMVxmXHUwMDBmrFx1MDAwYklGVOkuOZFg/f75y/p8cW15KXK8KNFcdTAwMDV03D5q/btQj75gdFhcdTAwMDNtXHUwMDEzPav2dqu5VpRgtjJQojRaouPBlIPczp8+XHUwMDE2XHUwMDBmKcfsyz/FpjNcdTAwMDaXq87jhC10KqiVTX5cdTAwMTZrV1+bUtj6aHSjdCFWbUVXnmbLbJog7SmF23c722H9sXvLflAvRWh61H3v/lx1MDAwZlt3g3AifQ==<!-- payload-end -->
  <defs>
    <style class="style-fonts">
      @font-face {
        font-family: "Virgil";
        src: url("https://file%2B.vscode-resource.vscode-cdn.net/Users/canale/.cursor/extensions/lrstanley.excalidraw-editor-3.7.4-universal/public//dist/excalidraw-assets/Virgil.woff2");
      }
      @font-face {
        font-family: "Cascadia";
        src: url("https://file%2B.vscode-resource.vscode-cdn.net/Users/canale/.cursor/extensions/lrstanley.excalidraw-editor-3.7.4-universal/public//dist/excalidraw-assets/Cascadia.woff2");
      }
      @font-face {
        font-family: "Assistant";
        src: url("https://file%2B.vscode-resource.vscode-cdn.net/Users/canale/.cursor/extensions/lrstanley.excalidraw-editor-3.7.4-universal/public//dist/excalidraw-assets/Assistant-Regular.woff2");
      }
    </style>
    
  </defs>
  <rect x="0" y="0" width="720" height="610.1953125" fill="#ffffff"></rect><g stroke-linecap="round" transform="translate(10 200.1953125) rotate(0 350 200)"><path d="M32 0 C173.21 -2.21, 310.55 -1.73, 668 0 C692.09 -2.71, 700.43 14.22, 700 32 C697 141.48, 696.06 252.31, 700 368 C697.73 392.64, 691.56 397.97, 668 400 C454.87 398.14, 242.33 397.66, 32 400 C7.68 397.22, 0.36 391.72, 0 368 C-0.06 284.65, 2.17 206.7, 0 32 C2.2 9.91, 9.94 -0.48, 32 0" stroke="none" stroke-width="0" fill="#e9ecef"></path><path d="M32 0 C159.55 -0.13, 286.28 -0.05, 668 0 M32 0 C205.07 0.69, 377.88 1.18, 668 0 M668 0 C688.04 0.53, 700.88 12.29, 700 32 M668 0 C689.53 0.56, 698.67 12.4, 700 32 M700 32 C699.99 103.9, 699.7 178.99, 700 368 M700 32 C697.85 162.67, 698.36 293.36, 700 368 M700 368 C700.6 387.73, 689.82 398.28, 668 400 M700 368 C698.31 389.4, 690.27 400.81, 668 400 M668 400 C531.25 402.43, 394.08 402.44, 32 400 M668 400 C530.66 402.64, 393.38 402.38, 32 400 M32 400 C8.78 399.71, -0.18 389.86, 0 368 M32 400 C12.5 399.98, 2.16 389.43, 0 368 M0 368 C-2.13 271.44, -0.79 174.24, 0 32 M0 368 C-0.61 275.55, 0.21 181.8, 0 32 M0 32 C0.44 12.66, 9.12 -1.31, 32 0 M0 32 C-0.62 8.6, 11.68 2.27, 32 0" stroke="#1e1e1e" stroke-width="2" fill="none"></path></g><g stroke-linecap="round" transform="translate(30 260.1953125) rotate(0 100 75)"><path d="M32 0 C65.18 -0.82, 88.66 0.39, 168 0 C192.09 -2.71, 200.43 14.22, 200 32 C197.68 60.22, 196.28 90.44, 200 118 C197.73 142.64, 191.56 147.97, 168 150 C122.88 149.5, 79.22 148.3, 32 150 C7.68 147.22, 0.36 141.72, 0 118 C-1.67 94.67, 1.64 79.37, 0 32 C2.2 9.91, 9.94 -0.48, 32 0" stroke="none" stroke-width="0" fill="#b2f2bb"></path><path d="M32 0 C60.06 0.69, 86.08 0.89, 168 0 M32 0 C69.19 -0.25, 105.75 0.97, 168 0 M168 0 C188.04 0.53, 200.88 12.29, 200 32 M168 0 C189.53 0.56, 198.67 12.4, 200 32 M200 32 C201.14 48.96, 200.7 70.64, 200 118 M200 32 C198.86 65.18, 199.61 98.41, 200 118 M200 118 C200.6 137.73, 189.82 148.28, 168 150 M200 118 C198.31 139.4, 190.27 150.81, 168 150 M168 150 C139.72 151.13, 110.37 151.15, 32 150 M168 150 C138.45 152.01, 109.06 151.36, 32 150 M32 150 C8.78 149.71, -0.18 139.86, 0 118 M32 150 C12.5 149.98, 2.16 139.43, 0 118 M0 118 C-1.34 93.05, 0.64 67.14, 0 32 M0 118 C-0.68 94.87, 0.54 69.78, 0 32 M0 32 C0.44 12.66, 9.12 -1.31, 32 0 M0 32 C-0.62 8.6, 11.68 2.27, 32 0" stroke="#2f9e44" stroke-width="2" fill="none"></path></g><g stroke-linecap="round" transform="translate(260 260.1953125) rotate(0 100 75)"><path d="M32 0 C65.18 -0.82, 88.66 0.39, 168 0 C192.09 -2.71, 200.43 14.22, 200 32 C197.68 60.22, 196.28 90.44, 200 118 C197.73 142.64, 191.56 147.97, 168 150 C122.88 149.5, 79.22 148.3, 32 150 C7.68 147.22, 0.36 141.72, 0 118 C-1.67 94.67, 1.64 79.37, 0 32 C2.2 9.91, 9.94 -0.48, 32 0" stroke="none" stroke-width="0" fill="#ffd8a8"></path><path d="M32 0 C60.06 0.69, 86.08 0.89, 168 0 M32 0 C69.19 -0.25, 105.75 0.97, 168 0 M168 0 C188.04 0.53, 200.88 12.29, 200 32 M168 0 C189.53 0.56, 198.67 12.4, 200 32 M200 32 C201.14 48.96, 200.7 70.64, 200 118 M200 32 C198.86 65.18, 199.61 98.41, 200 118 M200 118 C200.6 137.73, 189.82 148.28, 168 150 M200 118 C198.31 139.4, 190.27 150.81, 168 150 M168 150 C139.72 151.13, 110.37 151.15, 32 150 M168 150 C138.45 152.01, 109.06 151.36, 32 150 M32 150 C8.78 149.71, -0.18 139.86, 0 118 M32 150 C12.5 149.98, 2.16 139.43, 0 118 M0 118 C-1.34 93.05, 0.64 67.14, 0 32 M0 118 C-0.68 94.87, 0.54 69.78, 0 32 M0 32 C0.44 12.66, 9.12 -1.31, 32 0 M0 32 C-0.62 8.6, 11.68 2.27, 32 0" stroke="#e8590c" stroke-width="2" fill="none"></path></g><g stroke-linecap="round" transform="translate(490 260.1953125) rotate(0 100 75)"><path d="M32 0 C65.18 -0.82, 88.66 0.39, 168 0 C192.09 -2.71, 200.43 14.22, 200 32 C197.68 60.22, 196.28 90.44, 200 118 C197.73 142.64, 191.56 147.97, 168 150 C122.88 149.5, 79.22 148.3, 32 150 C7.68 147.22, 0.36 141.72, 0 118 C-1.67 94.67, 1.64 79.37, 0 32 C2.2 9.91, 9.94 -0.48, 32 0" stroke="none" stroke-width="0" fill="#a5d8ff"></path><path d="M32 0 C60.06 0.69, 86.08 0.89, 168 0 M32 0 C69.19 -0.25, 105.75 0.97, 168 0 M168 0 C188.04 0.53, 200.88 12.29, 200 32 M168 0 C189.53 0.56, 198.67 12.4, 200 32 M200 32 C201.14 48.96, 200.7 70.64, 200 118 M200 32 C198.86 65.18, 199.61 98.41, 200 118 M200 118 C200.6 137.73, 189.82 148.28, 168 150 M200 118 C198.31 139.4, 190.27 150.81, 168 150 M168 150 C139.72 151.13, 110.37 151.15, 32 150 M168 150 C138.45 152.01, 109.06 151.36, 32 150 M32 150 C8.78 149.71, -0.18 139.86, 0 118 M32 150 C12.5 149.98, 2.16 139.43, 0 118 M0 118 C-1.34 93.05, 0.64 67.14, 0 32 M0 118 C-0.68 94.87, 0.54 69.78, 0 32 M0 32 C0.44 12.66, 9.12 -1.31, 32 0 M0 32 C-0.62 8.6, 11.68 2.27, 32 0" stroke="#1971c2" stroke-width="2" fill="none"></path></g><g stroke-linecap="round" transform="translate(30 440.1953125) rotate(0 100 50)"><path d="M25 0 C61.26 -0.95, 87.82 0.25, 175 0 C194.43 -2.71, 200.43 11.89, 200 25 C197.98 41.51, 196.59 60.02, 200 75 C197.73 94.98, 193.89 97.97, 175 100 C125.18 99.38, 76.83 98.18, 25 100 C5.35 97.22, 0.36 94.06, 0 75 C-1.9 60.43, 1.41 53.89, 0 25 C2.2 7.58, 7.61 -0.48, 25 0" stroke="none" stroke-width="0" fill="#eebefa"></path><path d="M25 0 C55.86 0.66, 84.68 0.86, 175 0 M25 0 C66 -0.19, 106.37 1.03, 175 0 M175 0 C190.37 0.53, 200.88 9.96, 200 25 M175 0 C191.87 0.56, 198.67 10.06, 200 25 M200 25 C201.31 34.13, 200.87 47.98, 200 75 M200 25 C199.16 44.16, 199.9 63.36, 200 75 M200 75 C200.6 90.07, 192.15 98.28, 175 100 M200 75 C198.31 91.73, 192.6 100.81, 175 100 M175 100 C143.7 101.27, 111.33 101.29, 25 100 M175 100 C142.43 102.14, 110.02 101.49, 25 100 M25 100 C6.45 99.71, -0.18 92.19, 0 75 M25 100 C10.16 99.98, 2.16 91.76, 0 75 M0 75 C-1.08 60.38, 0.9 44.79, 0 25 M0 75 C-0.65 61.82, 0.57 46.69, 0 25 M0 25 C0.44 10.33, 6.78 -1.31, 25 0 M0 25 C-0.62 6.26, 9.35 2.27, 25 0" stroke="#9c36b5" stroke-width="2" fill="none"></path></g><g stroke-linecap="round" transform="translate(260 50.1953125) rotate(0 100 40)"><path d="M20 0 C58.46 -1.05, 87.22 0.16, 180 0 C196.09 -2.71, 200.43 10.22, 200 20 C198.07 33.25, 196.67 48.51, 200 60 C197.73 76.64, 195.56 77.97, 180 80 C126.83 79.3, 75.12 78.1, 20 80 C3.68 77.22, 0.36 75.72, 0 60 C-1.96 47.86, 1.35 43.75, 0 20 C2.2 5.91, 5.94 -0.48, 20 0" stroke="none" stroke-width="0" fill="#dee2e6"></path><path d="M20 0 C52.86 0.64, 83.68 0.84, 180 0 M20 0 C63.72 -0.15, 106.81 1.07, 180 0 M180 0 C192.04 0.53, 200.88 8.29, 200 20 M180 0 C193.53 0.56, 198.67 8.4, 200 20 M200 20 C201.35 26.95, 200.91 38.63, 200 60 M200 20 C199.24 35.26, 199.99 50.57, 200 60 M200 60 C200.6 71.73, 193.82 78.28, 180 80 M200 60 C198.31 73.4, 194.27 80.81, 180 80 M180 80 C146.55 81.37, 112.02 81.39, 20 80 M180 80 C145.27 82.23, 110.7 81.58, 20 80 M20 80 C4.78 79.71, -0.18 73.86, 0 60 M20 80 C8.5 79.98, 2.16 73.43, 0 60 M0 60 C-1.01 48.25, 0.97 35.53, 0 20 M0 60 C-0.64 49.58, 0.58 37.21, 0 20 M0 20 C0.44 8.66, 5.12 -1.31, 20 0 M0 20 C-0.62 4.6, 7.68 2.27, 20 0" stroke="#1e1e1e" stroke-width="2" fill="none"></path></g><g stroke-linecap="round" transform="translate(490 440.1953125) rotate(0 100 50)"><path d="M25 0 C61.26 -0.95, 87.82 0.25, 175 0 C194.43 -2.71, 200.43 11.89, 200 25 C197.98 41.51, 196.59 60.02, 200 75 C197.73 94.98, 193.89 97.97, 175 100 C125.18 99.38, 76.83 98.18, 25 100 C5.35 97.22, 0.36 94.06, 0 75 C-1.9 60.43, 1.41 53.89, 0 25 C2.2 7.58, 7.61 -0.48, 25 0" stroke="none" stroke-width="0" fill="#ffc9c9"></path><path d="M25 0 C55.86 0.66, 84.68 0.86, 175 0 M25 0 C66 -0.19, 106.37 1.03, 175 0 M175 0 C190.37 0.53, 200.88 9.96, 200 25 M175 0 C191.87 0.56, 198.67 10.06, 200 25 M200 25 C201.31 34.13, 200.87 47.98, 200 75 M200 25 C199.16 44.16, 199.9 63.36, 200 75 M200 75 C200.6 90.07, 192.15 98.28, 175 100 M200 75 C198.31 91.73, 192.6 100.81, 175 100 M175 100 C143.7 101.27, 111.33 101.29, 25 100 M175 100 C142.43 102.14, 110.02 101.49, 25 100 M25 100 C6.45 99.71, -0.18 92.19, 0 75 M25 100 C10.16 99.98, 2.16 91.76, 0 75 M0 75 C-1.08 60.38, 0.9 44.79, 0 25 M0 75 C-0.65 61.82, 0.57 46.69, 0 25 M0 25 C0.44 10.33, 6.78 -1.31, 25 0 M0 25 C-0.62 6.26, 9.35 2.27, 25 0" stroke="#c92a2a" stroke-width="2" fill="none"></path></g><g transform="translate(143.1181182861328 10) rotate(0 217.2998504638672 15)"><text x="217.2998504638672" y="0" font-family="Virgil, Segoe UI Emoji" font-size="20px" fill="#1e1e1e" text-anchor="middle" style="white-space: pre;" direction="ltr" dominant-baseline="text-before-edge">Homelab Architecture — LAN 192.168.11.0/24</text></g></svg>